PathFileType	4	(X/Y/Z)	SUBJ51_2_walk_RCNL2025.trc
DataRate	CameraRate	NumFrames	NumMarkers	Units	OrigDataRate	OrigDataStartFrame	OrigNumFrames
100	100	7	25	mm	100	1	229
Frame#	Time	R_Shoulder			L_Shoulder			C7			J_Notch			R_Elbow			L_Elbow			R_Wrist			L_Wrist			R_Asis			L_Asis			Sacral			Thoracic			Sternum			R_Thigh_Lateral			R_Knee_Lateral			R_Shank_Lateral			R_Ankle_Lateral			R_Heel			R_Toe			L_Thigh_Lateral			L_Knee_Lateral			L_Shank_Lateral			L_Ankle_Lateral			L_Heel			L_Toe		
		X1	Y1	Z1	X2	Y2	Z2	X3	Y3	Z3	X4	Y4	Z4	X5	Y5	Z5	X6	Y6	Z6	X7	Y7	Z7	X8	Y8	Z8	X9	Y9	Z9	X10	Y10	Z10	X11	Y11	Z11	X12	Y12	Z12	X13	Y13	Z13	X14	Y14	Z14	X15	Y15	Z15	X16	Y16	Z16	X17	Y17	Z17	X18	Y18	Z18	X19	Y19	Z19	X20	Y20	Z20	X21	Y21	Z21	X22	Y22	Z22	X23	Y23	Z23	X24	Y24	Z24	X25	Y25	Z25
1	0.00000000	-1804.891357	1446.140747	439.854523	-1804.527710	1495.884033	-12.020934	-1892.124023	1593.406860	209.268402	-1752.483154	1471.843384	209.665741	-1909.143555	1151.739990	515.417175	-1866.607056	1190.027710	-126.974960	-1852.467957	884.748840	509.090027	-1752.097046	954.364868	-121.450272	-1768.192383	1035.092163	325.119293	-1767.782593	1016.086182	83.655418	-1989.417114	1060.450073	198.847183	-1999.762817	1385.851074	199.674561	-1716.451538	1241.195801	190.822388	-1768.612549	640.939941	392.524445	-1764.952026	517.686035	338.956635	-1791.369751	297.814117	392.368652	-1807.092041	68.113419	267.687592	-1854.154419	63.341282	206.389618	-1647.876587	40.580021	254.754425	-1794.119019	638.314575	-52.575371	-1795.248901	526.627197	-7.976910	-1932.696777	411.995361	-42.739292	-2119.583984	233.883087	70.190697	-2133.432617	272.365540	136.126526	-2064.112549	82.393059	77.687866
2	0.01000000	-1796.226807	1448.256470	440.205597	-1797.136719	1496.889893	-11.875672	-1883.993652	1594.626831	209.534073	-1744.393921	1473.052856	209.901886	-1897.203003	1153.176880	516.781067	-1861.541260	1190.828613	-125.578323	-1835.213745	887.751007	510.959854	-1752.314758	952.631714	-120.307003	-1760.678833	1036.369263	325.728027	-1759.381104	1017.824280	84.467514	-1981.425659	1061.649536	198.967255	-1991.684326	1386.963135	200.509476	-1708.616943	1242.495972	191.351074	-1765.287842	641.033569	393.026306	-1763.023560	517.645264	339.445496	-1790.649048	297.847015	392.720917	-1807.081543	68.166924	267.739746	-1854.157104	63.440731	206.503708	-1647.908936	40.529053	254.878799	-1780.423340	640.783875	-52.240643	-1780.677612	528.877319	-7.296697	-1916.287354	412.188202	-42.034912	-2099.844482	229.603790	70.902077	-2114.669434	267.510406	136.792953	-2038.843018	80.707413	77.618858
3	0.02000000	-1785.308716	1450.820435	440.611298	-1787.849609	1498.041870	-11.719220	-1873.785767	1596.054932	209.847290	-1734.204712	1474.487305	210.162491	-1882.292847	1154.956299	518.525696	-1855.183350	1191.769409	-123.861427	-1813.488098	891.666809	513.264221	-1752.628052	950.580231	-118.853889	-1751.244385	1037.888794	326.451172	-1748.838013	1019.903625	85.546989	-1971.360840	1063.059937	199.115997	-1981.519897	1388.253662	201.550278	-1698.743896	1244.052979	191.986343	-1761.090454	641.136292	393.634583	-1760.635864	517.601074	340.038269	-1789.911987	297.924683	393.126007	-1807.071045	68.249458	267.790436	-1854.144531	63.570957	206.608261	-1647.954346	40.476223	255.039307	-1763.401978	643.801331	-51.770390	-1762.617676	531.621887	-6.368300	-1895.662476	412.076202	-41.146919	-2074.590820	223.805573	71.765381	-2090.747070	260.912384	137.561829	-2006.682739	78.503212	77.586975
4	0.03000000	-1772.567993	1453.669800	441.038208	-1777.047241	1499.228760	-11.576287	-1861.914551	1597.573975	210.184204	-1722.319824	1476.036987	210.423935	-1865.056885	1156.984863	520.598328	-1847.798706	1192.769043	-121.917404	-1788.171692	896.404419	515.890778	-1753.028931	948.342255	-117.134926	-1740.284546	1039.529419	327.240265	-1736.601196	1022.165894	86.876778	-1959.623657	1064.573120	199.286743	-1969.675293	1389.614746	202.748352	-1687.215698	1245.758423	192.689102	-1756.174316	641.236084	394.305908	-1757.901733	517.558044	340.698456	-1789.247437	298.065125	393.550110	-1807.062988	68.362404	267.831177	-1854.111938	63.733315	206.686981	-1648.014038	40.430077	255.233444	-1743.848511	647.185059	-51.152802	-1741.928833	534.687927	-5.194128	-1871.672363	411.498962	-40.094109	-2044.602051	216.539536	72.727875	-2062.447998	252.609268	138.374100	-1968.759888	75.849144	77.607170
5	0.04000000	-1758.523682	1456.617676	441.452026	-1765.181396	1500.328857	-11.471828	-1848.867554	1599.059082	210.518326	-1709.225220	1477.582397	210.664749	-1846.237915	1159.143799	522.932922	-1839.702637	1193.733276	-119.852211	-1760.335266	901.820435	518.708466	-1753.489502	946.045074	-115.202068	-1728.268555	1041.149414	328.044830	-1723.206909	1024.427124	88.419769	-1946.697388	1066.074341	199.471100	-1956.635986	1390.934814	204.042923	-1674.490601	1247.486938	193.420090	-1750.723022	641.323486	394.994568	-1754.944702	517.520020	341.387543	-1788.719604	298.278259	393.964020	-1807.060547	68.504097	267.858490	-1854.060181	63.931400	206.735870	-1648.088745	40.398659	255.457962	-1722.678711	650.718933	-50.374962	-1719.596069	537.869568	-3.791365	-1845.333618	410.336151	-38.895168	-2010.874756	207.964828	73.731133	-2030.747925	242.752136	139.179382	-1926.507324	72.862633	77.666138
6	0.05000000	-1743.656372	1459.490356	441.824280	-1752.663696	1501.232788	-11.425785	-1835.086670	1600.401367	210.824799	-1695.367432	1479.017212	210.867538	-1826.495483	1161.313599	525.465759	-1831.183960	1194.571777	-117.759445	-1730.979492	907.752441	521.586914	-1753.966675	943.783356	-113.101875	-1715.607910	1042.617554	328.826874	-1709.156128	1026.509644	90.127800	-1933.028931	1067.463989	199.657700	-1942.849243	1392.119141	205.371918	-1660.987183	1249.117310	194.150787	-1744.904419	641.391174	395.669434	-1751.866699	517.489624	342.077179	-1788.351685	298.560791	394.354187	-1807.065918	68.672531	267.878052	-1853.994141	64.169853	206.766388	-1648.175415	40.386772	255.706696	-1700.718384	654.197571	-49.422047	-1696.506348	540.973083	-2.184573	-1817.576904	408.521088	-37.570854	-1974.373291	198.306839	74.722099	-1996.551758	231.562500	139.948669	-1881.303955	69.687035	77.716690
7	0.06000000	-1728.350586	1462.145020	442.135651	-1739.813843	1501.852905	-11.450067	-1820.915161	1601.519287	211.083267	-1681.097412	1480.256348	211.019714	-1806.326538	1163.394775	528.141541	-1822.472656	1195.210449	-115.709297	-1700.909363	914.042053	524.409592	-1754.410522	941.611938	-110.871151	-1702.594849	1043.830444	329.569397	-1694.858643	1028.260498	91.949303	-1918.972900	1068.666382	199.830338	-1928.670166	1393.098145	206.679108	-1647.033325	1250.543823	194.867599	-1738.850952	641.430847	396.318573	-1748.734253	517.468140	342.754333	-1788.111206	298.899689	394.726044	-1807.077759	68.867744	267.903320	-1853.920776	64.451950	206.800949	-1648.265259	40.394047	255.966629	-1678.611694	657.452393	-48.281109	-1673.350464	543.838440	-0.400933	-1789.127319	406.034241	-36.146675	-1935.927734	187.823547	75.656570	-1960.574585	219.302353	140.673401	-1834.300781	66.473412	77.687218
